<?xml version="1.0" encoding="UTF-8"?>
<svg id="Layer_1" data-name="Layer 1" xmlns="http://www.w3.org/2000/svg" viewBox="0 0 30 30">
  <defs>
    <style>
      .cls-1 {
        fill: #fff;
      }

      .cls-1, .cls-2 {
        stroke-width: 0px;
      }

      .cls-2 {
        fill: #5899d2;
      }
    </style>
  </defs>
  <path class="cls-2" d="M29.9,11.49l-.18-3.09c-.26-4.37-3.75-7.85-8.11-8.11l-3.09-.18C16.17-.03,13.83-.03,11.49.1l-3.09.18C4.03.55.55,4.03.29,8.4l-.18,3.09C-.03,13.83-.03,16.17.1,18.51l.18,3.09c.26,4.37,3.75,7.85,8.11,8.11l3.09.18c2.34.14,4.68.14,7.01,0l3.09-.18c4.37-.26,7.85-3.75,8.11-8.11l.18-3.09c.14-2.34.14-4.68,0-7.01Z"/>
  <path class="cls-1" d="M24.63,15h0c0,.86-.17,1.72-.5,2.52-.33.8-.81,1.53-1.42,2.14-.6.61-1.33,1.1-2.12,1.44-.79.34-1.65.51-2.51.52,0,0-.02,0-.05,0h-.02c-.51.01-.93-.39-.94-.9-.01-.51.39-.93.9-.94h.05s.05,0,.05,0c.62,0,1.24-.13,1.81-.37.57-.24,1.09-.6,1.53-1.04.44-.44.79-.97,1.02-1.54.24-.57.36-1.19.36-1.81h0c0-.63-.12-1.25-.36-1.83-.24-.58-.59-1.1-1.03-1.55-.44-.44-.97-.8-1.55-1.03-.58-.24-1.2-.36-1.82-.36h0c-.62,0-1.24.12-1.81.36-.57.24-1.1.58-1.54,1.02-.44.44-.8.96-1.04,1.53-.24.57-.37,1.19-.37,1.81,0,.02,0,.03,0,.05h0c0,1.14-.92,2.06-2.06,2.06s-2.06-.92-2.06-2.06.92-2.06,2.06-2.06c.18,0,.35.02.51.06.06-.2.14-.4.22-.59.34-.79.83-1.52,1.44-2.12.61-.6,1.34-1.09,2.14-1.42.8-.33,1.66-.5,2.52-.5h0c.86,0,1.73.17,2.53.5.8.33,1.53.82,2.15,1.43.61.61,1.1,1.34,1.43,2.15.33.8.5,1.67.5,2.53ZM16.89,17.78c-.2-.08-.4-.19-.58-.31-.29.61-.68,1.16-1.16,1.63-.53.52-1.16.95-1.86,1.23-.69.28-1.44.43-2.18.43h0c-.75,0-1.51-.15-2.2-.44-.7-.29-1.33-.72-1.87-1.25-.53-.53-.96-1.17-1.25-1.87-.29-.7-.44-1.45-.44-2.2h0c0-.74.14-1.48.42-2.17.28-.69.69-1.32,1.21-1.85,0,0,.01-.01.03-.03h0s.02-.02.02-.02c.35-.37.94-.38,1.31-.03.37.35.38.93.03,1.3l-.03.03h0s-.03.04-.03.04c-.35.36-.63.79-.82,1.25-.19.46-.29.97-.29,1.47h0c0,.51.1,1.02.3,1.49.2.47.48.9.85,1.27.36.36.8.65,1.27.85.47.2.98.3,1.49.3h0c.51,0,1.01-.1,1.48-.29.47-.19.9-.48,1.26-.83.36-.36.65-.78.85-1.25.2-.47.3-.97.31-1.48,0,0,0-.02,0-.05h0s0-.09,0-.14c.02-.37.1-.73.25-1.07.16-.35.38-.67.65-.94.28-.27.6-.48.96-.63.36-.15.74-.22,1.13-.22h0c.39,0,.78.08,1.15.23.36.15.69.37.97.65.28.28.5.61.65.97.15.36.23.76.23,1.15h0c0,.39-.08.79-.23,1.15-.15.36-.37.69-.65.97-.28.28-.61.5-.97.65-.36.15-.76.23-1.15.23h0c-.38,0-.77-.08-1.13-.22ZM16.87,15.03c0,.3.13.58.35.79.21.21.5.32.8.33h0c.3,0,.6-.12.81-.34.21-.22.34-.51.34-.81h0c0-.3-.12-.6-.34-.81-.22-.21-.51-.34-.81-.34h0c-.3,0-.59.12-.8.33-.21.21-.34.49-.35.79,0,0,0,0,0,.02h0s0,.02,0,.02h0s0,.02,0,.02Z"/>
</svg>